<svg width="47" height="73" viewBox="0 0 47 73" fill="none" xmlns="http://www.w3.org/2000/svg">
<path fill-rule="evenodd" clip-rule="evenodd" d="M8.96017 25.8098L8.99548 25.8559C9.17764 26.0938 9.37582 26.3016 9.58255 26.4787L9.78489 26.652L9.97529 26.8383C10.3336 27.189 10.6362 27.4603 11.0478 27.8276L11.0595 27.8381C11.826 28.5222 12.7658 29.361 14.0177 30.7693C16.9605 34.08 17.7402 37.8552 17.66 41.0332C17.5925 43.7096 16.8897 46.2813 16.4732 47.8052C16.4498 47.8908 16.4274 47.973 16.406 48.0517C16.1813 48.8784 16.0307 49.4403 15.9224 49.9417L15.8547 50.2554L15.7622 50.5626C15.4284 51.6712 15.2418 52.875 15.2418 54.1483C15.2418 60.8159 20.0288 64.978 24.4671 64.978C28.9053 64.978 33.6923 60.8159 33.6923 54.1483C33.6923 49.0835 30.7908 45.2654 27.4689 43.9094L26.9511 43.698L26.4677 43.4168C25.0407 42.5869 23.4066 41.4744 21.9168 40.1728C20.5816 39.0063 18.6465 37.0788 17.5188 34.501C16.4567 32.0734 15.8198 29.9566 15.501 27.9559C15.1914 26.0134 15.2332 24.4462 15.2586 23.4971C15.2594 23.4674 15.2602 23.4383 15.2609 23.4099C15.2774 22.7837 15.2774 22.5815 15.2655 22.405C15.2582 22.2977 15.2453 22.1938 15.1964 22.0187L15.1482 21.8464L15.1077 21.6721C14.5952 19.4637 12.9333 18.4505 11.6319 18.4505C10.1337 18.4505 8.02199 19.9135 8.02199 22.8625C8.02199 24.0222 8.38566 25.0166 8.92594 25.7625L8.96017 25.8098ZM2.62627 30.7329C3.14378 31.4087 3.72655 32.0253 4.36429 32.5715C4.868 33.0645 5.29413 33.4448 5.70608 33.8125C6.41305 34.4435 7.07823 35.0372 8.02199 36.0989C8.07327 36.1566 8.12311 36.2146 8.17155 36.2728C10.5247 39.1047 9.56316 42.6424 8.6648 45.9478C8.45158 46.7323 8.24192 47.5037 8.08098 48.2494C7.52214 50.1051 7.21979 52.0881 7.21979 54.1483C7.21979 64.5598 14.9417 73 24.4671 73C33.9925 73 41.7143 64.5598 41.7143 54.1483C41.7143 46.0569 37.0505 39.1561 30.5007 36.4824C28.3613 35.2381 25.7014 33.1902 24.8682 31.2856C23.1799 27.4269 23.2319 25.4533 23.2801 23.6209C23.3107 22.4584 23.3398 21.3527 22.922 19.8585C21.665 14.4427 17.087 10.4285 11.6319 10.4285C5.20777 10.4285 0 15.9954 0 22.8625C0 25.4134 0.718556 27.7848 1.9511 29.7581C2.10218 30 2.26099 30.2359 2.42714 30.4655C2.42781 30.4664 2.42849 30.4673 2.42916 30.4683L2.4066 30.4834C2.4068 30.4837 2.40701 30.4839 2.40721 30.4841C2.45436 30.538 2.50091 30.591 2.5469 30.6431C2.57355 30.6734 2.60001 30.7033 2.62627 30.7329Z" fill="white"/>
<path fill-rule="evenodd" clip-rule="evenodd" d="M36.9008 24.0659C39.5591 24.0659 41.714 21.911 41.714 19.2527C41.714 16.5945 39.5591 14.4395 36.9008 14.4395C34.2425 14.4395 32.0876 16.5945 32.0876 19.2527C32.0876 21.911 34.2425 24.0659 36.9008 24.0659ZM36.9008 28.8791C42.2173 28.8791 46.5272 24.5692 46.5272 19.2527C46.5272 13.9362 42.2173 9.62634 36.9008 9.62634C31.5843 9.62634 27.2744 13.9362 27.2744 19.2527C27.2744 24.5692 31.5843 28.8791 36.9008 28.8791Z" fill="white"/>
<path fill-rule="evenodd" clip-rule="evenodd" d="M24.8678 8.82418C26.1969 8.82418 27.2744 7.74671 27.2744 6.41759C27.2744 5.08846 26.1969 4.01099 24.8678 4.01099C23.5387 4.01099 22.4612 5.08846 22.4612 6.41759C22.4612 7.74671 23.5387 8.82418 24.8678 8.82418ZM24.8678 12.8352C28.4121 12.8352 31.2854 9.96192 31.2854 6.41759C31.2854 2.87325 28.4121 0 24.8678 0C21.3234 0 18.4502 2.87325 18.4502 6.41759C18.4502 9.96192 21.3234 12.8352 24.8678 12.8352Z" fill="white"/>
</svg>
