<svg width="65" height="152" viewBox="0 0 65 152" fill="none" xmlns="http://www.w3.org/2000/svg">
<path d="M2.88991 13L0.267756 3.54545H1.76811L3.61009 10.8672H3.6978L5.61364 3.54545H7.10014L9.01598 10.8718H9.10369L10.9411 3.54545H12.446L9.81925 13H8.38352L6.39382 5.91832H6.31996L4.33026 13H2.88991ZM15.9938 13.1431C15.2952 13.1431 14.6935 12.9938 14.1887 12.6953C13.6871 12.3937 13.2993 11.9705 13.0254 11.4258C12.7546 10.878 12.6191 10.2363 12.6191 9.50071C12.6191 8.77438 12.7546 8.13423 13.0254 7.58026C13.2993 7.02628 13.6809 6.59387 14.1703 6.28303C14.6627 5.97218 15.2382 5.81676 15.8968 5.81676C16.2969 5.81676 16.6847 5.88293 17.0602 6.01527C17.4357 6.14761 17.7727 6.35535 18.0712 6.63849C18.3697 6.92164 18.6052 7.28942 18.7775 7.74183C18.9499 8.19117 19.036 8.73745 19.036 9.38068V9.87003H13.3993V8.83594H17.6834C17.6834 8.47277 17.6096 8.15116 17.4618 7.87109C17.3141 7.58795 17.1064 7.36482 16.8386 7.2017C16.5739 7.03859 16.2631 6.95703 15.9061 6.95703C15.5183 6.95703 15.1797 7.05244 14.8904 7.24325C14.6042 7.43099 14.3826 7.6772 14.2257 7.98189C14.0718 8.2835 13.9949 8.61127 13.9949 8.9652V9.77308C13.9949 10.247 14.0779 10.6502 14.2441 10.9826C14.4134 11.315 14.6489 11.5689 14.9505 11.7443C15.2521 11.9167 15.6045 12.0028 16.0076 12.0028C16.2692 12.0028 16.5078 11.9659 16.7232 11.892C16.9386 11.8151 17.1248 11.7012 17.2818 11.5504C17.4387 11.3996 17.5588 11.2134 17.6419 10.9918L18.9483 11.2273C18.8437 11.612 18.656 11.949 18.3851 12.2383C18.1174 12.5245 17.7804 12.7476 17.3741 12.9077C16.9709 13.0646 16.5108 13.1431 15.9938 13.1431ZM21.754 3.54545V4.43182C21.754 4.69342 21.7048 4.96887 21.6063 5.25817C21.5109 5.54439 21.3754 5.81984 21.2 6.08452C21.0246 6.34919 20.8184 6.57694 20.5814 6.76776L19.8982 6.27841C20.0798 6.01373 20.2367 5.73213 20.3691 5.43359C20.5045 5.13506 20.5722 4.80575 20.5722 4.44567V3.54545H21.754ZM29.452 5.90909L26.8806 13H25.4033L22.8273 5.90909H24.3092L26.105 11.3658H26.1789L27.9701 5.90909H29.452ZM33.5641 13.1431C32.8655 13.1431 32.2638 12.9938 31.7591 12.6953C31.2574 12.3937 30.8696 11.9705 30.5957 11.4258C30.3249 10.878 30.1895 10.2363 30.1895 9.50071C30.1895 8.77438 30.3249 8.13423 30.5957 7.58026C30.8696 7.02628 31.2512 6.59387 31.7406 6.28303C32.233 5.97218 32.8085 5.81676 33.4672 5.81676C33.8672 5.81676 34.255 5.88293 34.6305 6.01527C35.006 6.14761 35.343 6.35535 35.6415 6.63849C35.94 6.92164 36.1755 7.28942 36.3478 7.74183C36.5202 8.19117 36.6064 8.73745 36.6064 9.38068V9.87003H30.9696V8.83594H35.2537C35.2537 8.47277 35.1799 8.15116 35.0321 7.87109C34.8844 7.58795 34.6767 7.36482 34.4089 7.2017C34.1442 7.03859 33.8334 6.95703 33.4764 6.95703C33.0886 6.95703 32.7501 7.05244 32.4608 7.24325C32.1745 7.43099 31.9529 7.6772 31.796 7.98189C31.6421 8.2835 31.5652 8.61127 31.5652 8.9652V9.77308C31.5652 10.247 31.6483 10.6502 31.8145 10.9826C31.9837 11.315 32.2192 11.5689 32.5208 11.7443C32.8224 11.9167 33.1748 12.0028 33.5779 12.0028C33.8395 12.0028 34.0781 11.9659 34.2935 11.892C34.5089 11.8151 34.6951 11.7012 34.8521 11.5504C35.0091 11.3996 35.1291 11.2134 35.2122 10.9918L36.5186 11.2273C36.414 11.612 36.2263 11.949 35.9554 12.2383C35.6877 12.5245 35.3507 12.7476 34.9444 12.9077C34.5413 13.0646 34.0811 13.1431 33.5641 13.1431ZM44.5513 15.8068C43.9881 15.8068 43.5034 15.733 43.0971 15.5852C42.694 15.4375 42.3646 15.2421 42.1092 14.9989C41.8538 14.7558 41.6629 14.4896 41.5368 14.2003L42.7232 13.7109C42.8063 13.8464 42.9171 13.9895 43.0556 14.1403C43.1971 14.2942 43.388 14.425 43.628 14.5327C43.8712 14.6404 44.1835 14.6942 44.5652 14.6942C45.0884 14.6942 45.5208 14.5665 45.8624 14.3111C46.204 14.0587 46.3748 13.6555 46.3748 13.1016V11.7074H46.2871C46.204 11.8582 46.084 12.0259 45.927 12.2106C45.7731 12.3952 45.5608 12.5553 45.29 12.6907C45.0191 12.8261 44.6667 12.8938 44.2328 12.8938C43.6726 12.8938 43.1679 12.763 42.7186 12.5014C42.2723 12.2367 41.9184 11.8474 41.6568 11.3335C41.3983 10.8164 41.269 10.1809 41.269 9.42685C41.269 8.67282 41.3967 8.02651 41.6522 7.48793C41.9107 6.94934 42.2646 6.53693 42.714 6.25071C43.1633 5.96141 43.6726 5.81676 44.242 5.81676C44.6821 5.81676 45.0376 5.89062 45.3084 6.03835C45.5792 6.183 45.7901 6.35227 45.9409 6.54616C46.0948 6.74006 46.2132 6.91087 46.2963 7.05859H46.3979V5.90909H47.7505V13.157C47.7505 13.7663 47.609 14.2665 47.3258 14.6573C47.0427 15.0482 46.6595 15.3375 46.1763 15.5252C45.6962 15.7129 45.1545 15.8068 44.5513 15.8068ZM44.5375 11.7489C44.9345 11.7489 45.2699 11.6566 45.5439 11.4719C45.8208 11.2842 46.0301 11.0165 46.1717 10.6687C46.3163 10.3178 46.3887 9.89773 46.3887 9.40838C46.3887 8.93134 46.3179 8.51125 46.1763 8.14808C46.0347 7.78492 45.827 7.50178 45.5531 7.29865C45.2792 7.09245 44.9406 6.98935 44.5375 6.98935C44.122 6.98935 43.7757 7.09706 43.4988 7.3125C43.2218 7.52486 43.0125 7.81416 42.8709 8.1804C42.7324 8.54664 42.6632 8.95597 42.6632 9.40838C42.6632 9.87311 42.734 10.2809 42.8755 10.6317C43.0171 10.9826 43.2264 11.2565 43.5034 11.4535C43.7834 11.6504 44.1281 11.7489 44.5375 11.7489ZM52.5886 13.1431C51.9238 13.1431 51.3437 12.9908 50.8482 12.6861C50.3527 12.3814 49.968 11.9551 49.6941 11.4073C49.4202 10.8595 49.2832 10.2193 49.2832 9.48686C49.2832 8.7513 49.4202 8.10807 49.6941 7.55717C49.968 7.00627 50.3527 6.57848 50.8482 6.27379C51.3437 5.96911 51.9238 5.81676 52.5886 5.81676C53.2534 5.81676 53.8335 5.96911 54.329 6.27379C54.8245 6.57848 55.2092 7.00627 55.4831 7.55717C55.757 8.10807 55.894 8.7513 55.894 9.48686C55.894 10.2193 55.757 10.8595 55.4831 11.4073C55.2092 11.9551 54.8245 12.3814 54.329 12.6861C53.8335 12.9908 53.2534 13.1431 52.5886 13.1431ZM52.5932 11.9844C53.0241 11.9844 53.3811 11.8705 53.6642 11.6428C53.9474 11.415 54.1567 11.1119 54.2921 10.7333C54.4306 10.3548 54.4998 9.93774 54.4998 9.48224C54.4998 9.02983 54.4306 8.61435 54.2921 8.2358C54.1567 7.85417 53.9474 7.54794 53.6642 7.31712C53.3811 7.08629 53.0241 6.97088 52.5932 6.97088C52.1593 6.97088 51.7992 7.08629 51.513 7.31712C51.2298 7.54794 51.019 7.85417 50.8805 8.2358C50.7451 8.61435 50.6774 9.02983 50.6774 9.48224C50.6774 9.93774 50.7451 10.3548 50.8805 10.7333C51.019 11.1119 51.2298 11.415 51.513 11.6428C51.7992 11.8705 52.1593 11.9844 52.5932 11.9844ZM60.7448 5.90909V7.01705H56.8715V5.90909H60.7448ZM57.9102 4.21023H59.2906V10.918C59.2906 11.1857 59.3306 11.3873 59.4106 11.5227C59.4906 11.6551 59.5937 11.7459 59.7199 11.7951C59.8492 11.8413 59.9892 11.8643 60.14 11.8643C60.2508 11.8643 60.3477 11.8567 60.4308 11.8413C60.5139 11.8259 60.5786 11.8136 60.6247 11.8043L60.874 12.9446C60.794 12.9754 60.6801 13.0062 60.5324 13.0369C60.3847 13.0708 60.2 13.0893 59.9784 13.0923C59.6153 13.0985 59.2767 13.0339 58.9628 12.8984C58.6489 12.763 58.395 12.5537 58.2011 12.2706C58.0072 11.9875 57.9102 11.632 57.9102 11.2042V4.21023ZM4.23793 21.9091V23.017H0.364702V21.9091H4.23793ZM1.40341 20.2102H2.78374V26.918C2.78374 27.1857 2.82375 27.3873 2.90376 27.5227C2.98378 27.6551 3.08688 27.7459 3.21307 27.7951C3.34233 27.8413 3.48236 27.8643 3.63317 27.8643C3.74396 27.8643 3.84091 27.8567 3.92401 27.8413C4.0071 27.8259 4.07173 27.8136 4.1179 27.8043L4.36719 28.9446C4.28717 28.9754 4.1733 29.0062 4.02557 29.0369C3.87784 29.0708 3.69318 29.0893 3.47159 29.0923C3.10843 29.0985 2.76989 29.0339 2.45597 28.8984C2.14205 28.763 1.88814 28.5537 1.69425 28.2706C1.50036 27.9875 1.40341 27.632 1.40341 27.2042V20.2102ZM7.2975 24.7898V29H5.91717V19.5455H7.27903V23.0632H7.36674C7.53294 22.6816 7.78684 22.3784 8.12846 22.1538C8.47008 21.9291 8.91634 21.8168 9.46724 21.8168C9.95351 21.8168 10.3782 21.9168 10.7414 22.1168C11.1076 22.3169 11.3908 22.6154 11.5908 23.0124C11.7939 23.4064 11.8955 23.8988 11.8955 24.4897V29H10.5152V24.6559C10.5152 24.1358 10.3813 23.7326 10.1135 23.4464C9.84579 23.1571 9.4734 23.0124 8.99636 23.0124C8.67013 23.0124 8.37775 23.0817 8.11923 23.2202C7.86378 23.3587 7.6622 23.5618 7.51447 23.8295C7.36982 24.0942 7.2975 24.4143 7.2975 24.7898ZM16.7936 29.1431C16.095 29.1431 15.4933 28.9938 14.9885 28.6953C14.4869 28.3937 14.0991 27.9705 13.8252 27.4258C13.5544 26.878 13.4189 26.2363 13.4189 25.5007C13.4189 24.7744 13.5544 24.1342 13.8252 23.5803C14.0991 23.0263 14.4807 22.5939 14.9701 22.283C15.4625 21.9722 16.038 21.8168 16.6966 21.8168C17.0967 21.8168 17.4845 21.8829 17.86 22.0153C18.2355 22.1476 18.5725 22.3554 18.871 22.6385C19.1695 22.9216 19.405 23.2894 19.5773 23.7418C19.7497 24.1912 19.8358 24.7375 19.8358 25.3807V25.87H14.1991V24.8359H18.4832C18.4832 24.4728 18.4094 24.1512 18.2616 23.8711C18.1139 23.5879 17.9062 23.3648 17.6384 23.2017C17.3737 23.0386 17.0629 22.957 16.7059 22.957C16.3181 22.957 15.9796 23.0524 15.6903 23.2433C15.404 23.431 15.1824 23.6772 15.0255 23.9819C14.8716 24.2835 14.7947 24.6113 14.7947 24.9652V25.7731C14.7947 26.247 14.8778 26.6502 15.0439 26.9826C15.2132 27.315 15.4487 27.5689 15.7503 27.7443C16.0519 27.9167 16.4043 28.0028 16.8074 28.0028C17.069 28.0028 17.3076 27.9659 17.523 27.892C17.7384 27.8151 17.9246 27.7012 18.0816 27.5504C18.2385 27.3996 18.3586 27.2134 18.4417 26.9918L19.7481 27.2273C19.6435 27.612 19.4558 27.949 19.1849 28.2383C18.9172 28.5245 18.5802 28.7476 18.1739 28.9077C17.7707 29.0646 17.3106 29.1431 16.7936 29.1431ZM24.8078 29V21.9091H26.1327V23.0632H26.2204C26.3682 22.6723 26.6098 22.3677 26.9452 22.1491C27.2807 21.9276 27.6823 21.8168 28.1501 21.8168C28.6241 21.8168 29.0211 21.9276 29.3412 22.1491C29.6643 22.3707 29.9028 22.6754 30.0567 23.0632H30.1306C30.2999 22.6847 30.5692 22.383 30.9385 22.1584C31.3078 21.9306 31.7479 21.8168 32.2588 21.8168C32.902 21.8168 33.4268 22.0183 33.833 22.4215C34.2423 22.8247 34.447 23.4325 34.447 24.245V29H33.0667V24.3743C33.0667 23.8942 32.9359 23.5464 32.6743 23.331C32.4127 23.1155 32.1003 23.0078 31.7371 23.0078C31.2878 23.0078 30.9385 23.1463 30.6892 23.4233C30.4399 23.6972 30.3153 24.0496 30.3153 24.4805V29H28.9395V24.2866C28.9395 23.9019 28.8195 23.5926 28.5795 23.3587C28.3394 23.1248 28.027 23.0078 27.6423 23.0078C27.3807 23.0078 27.1391 23.0771 26.9175 23.2156C26.699 23.351 26.522 23.5402 26.3866 23.7834C26.2543 24.0265 26.1881 24.3081 26.1881 24.6282V29H24.8078ZM39.2839 29.1431C38.6191 29.1431 38.039 28.9908 37.5435 28.6861C37.048 28.3814 36.6633 27.9551 36.3894 27.4073C36.1155 26.8595 35.9785 26.2193 35.9785 25.4869C35.9785 24.7513 36.1155 24.1081 36.3894 23.5572C36.6633 23.0063 37.048 22.5785 37.5435 22.2738C38.039 21.9691 38.6191 21.8168 39.2839 21.8168C39.9487 21.8168 40.5288 21.9691 41.0243 22.2738C41.5198 22.5785 41.9045 23.0063 42.1784 23.5572C42.4524 24.1081 42.5893 24.7513 42.5893 25.4869C42.5893 26.2193 42.4524 26.8595 42.1784 27.4073C41.9045 27.9551 41.5198 28.3814 41.0243 28.6861C40.5288 28.9908 39.9487 29.1431 39.2839 29.1431ZM39.2885 27.9844C39.7194 27.9844 40.0764 27.8705 40.3596 27.6428C40.6427 27.415 40.852 27.1119 40.9874 26.7333C41.1259 26.3548 41.1951 25.9377 41.1951 25.4822C41.1951 25.0298 41.1259 24.6143 40.9874 24.2358C40.852 23.8542 40.6427 23.5479 40.3596 23.3171C40.0764 23.0863 39.7194 22.9709 39.2885 22.9709C38.8546 22.9709 38.4945 23.0863 38.2083 23.3171C37.9251 23.5479 37.7143 23.8542 37.5758 24.2358C37.4404 24.6143 37.3727 25.0298 37.3727 25.4822C37.3727 25.9377 37.4404 26.3548 37.5758 26.7333C37.7143 27.1119 37.9251 27.415 38.2083 27.6428C38.4945 27.8705 38.8546 27.9844 39.2885 27.9844ZM44.1301 21.9091H45.5104V29.4616C45.5104 29.9356 45.4242 30.3357 45.2519 30.6619C45.0826 30.9882 44.8302 31.2359 44.4948 31.4052C44.1624 31.5745 43.7515 31.6591 43.2622 31.6591C43.2129 31.6591 43.1668 31.6591 43.1237 31.6591C43.0775 31.6591 43.0298 31.6576 42.9806 31.6545V30.468C43.0236 30.468 43.0621 30.468 43.096 30.468C43.1267 30.468 43.1621 30.468 43.2021 30.468C43.5284 30.468 43.7638 30.3803 43.9085 30.2049C44.0562 30.0326 44.1301 29.7817 44.1301 29.4524V21.9091ZM44.8133 20.815C44.5732 20.815 44.367 20.735 44.1947 20.5749C44.0254 20.4118 43.9408 20.2179 43.9408 19.9933C43.9408 19.7655 44.0254 19.5716 44.1947 19.4116C44.367 19.2485 44.5732 19.1669 44.8133 19.1669C45.0534 19.1669 45.258 19.2485 45.4273 19.4116C45.5996 19.5716 45.6858 19.7655 45.6858 19.9933C45.6858 20.2179 45.5996 20.4118 45.4273 20.5749C45.258 20.735 45.0534 20.815 44.8133 20.815ZM50.3542 29.1431C49.6895 29.1431 49.1093 28.9908 48.6138 28.6861C48.1183 28.3814 47.7336 27.9551 47.4597 27.4073C47.1858 26.8595 47.0488 26.2193 47.0488 25.4869C47.0488 24.7513 47.1858 24.1081 47.4597 23.5572C47.7336 23.0063 48.1183 22.5785 48.6138 22.2738C49.1093 21.9691 49.6895 21.8168 50.3542 21.8168C51.019 21.8168 51.5991 21.9691 52.0946 22.2738C52.5901 22.5785 52.9748 23.0063 53.2488 23.5572C53.5227 24.1081 53.6596 24.7513 53.6596 25.4869C53.6596 26.2193 53.5227 26.8595 53.2488 27.4073C52.9748 27.9551 52.5901 28.3814 52.0946 28.6861C51.5991 28.9908 51.019 29.1431 50.3542 29.1431ZM50.3588 27.9844C50.7897 27.9844 51.1467 27.8705 51.4299 27.6428C51.713 27.415 51.9223 27.1119 52.0577 26.7333C52.1962 26.3548 52.2654 25.9377 52.2654 25.4822C52.2654 25.0298 52.1962 24.6143 52.0577 24.2358C51.9223 23.8542 51.713 23.5479 51.4299 23.3171C51.1467 23.0863 50.7897 22.9709 50.3588 22.9709C49.9249 22.9709 49.5648 23.0863 49.2786 23.3171C48.9954 23.5479 48.7846 23.8542 48.6461 24.2358C48.5107 24.6143 48.443 25.0298 48.443 25.4822C48.443 25.9377 48.5107 26.3548 48.6461 26.7333C48.7846 27.1119 48.9954 27.415 49.2786 27.6428C49.5648 27.8705 49.9249 27.9844 50.3588 27.9844ZM4.23793 37.9091V39.017H0.364702V37.9091H4.23793ZM1.40341 36.2102H2.78374V42.918C2.78374 43.1857 2.82375 43.3873 2.90376 43.5227C2.98378 43.6551 3.08688 43.7459 3.21307 43.7951C3.34233 43.8413 3.48236 43.8643 3.63317 43.8643C3.74396 43.8643 3.84091 43.8567 3.92401 43.8413C4.0071 43.8259 4.07173 43.8136 4.1179 43.8043L4.36719 44.9446C4.28717 44.9754 4.1733 45.0062 4.02557 45.0369C3.87784 45.0708 3.69318 45.0893 3.47159 45.0923C3.10843 45.0985 2.76989 45.0339 2.45597 44.8984C2.14205 44.763 1.88814 44.5537 1.69425 44.2706C1.50036 43.9875 1.40341 43.632 1.40341 43.2042V36.2102ZM7.2975 40.7898V45H5.91717V35.5455H7.27903V39.0632H7.36674C7.53294 38.6816 7.78684 38.3784 8.12846 38.1538C8.47008 37.9291 8.91634 37.8168 9.46724 37.8168C9.95351 37.8168 10.3782 37.9168 10.7414 38.1168C11.1076 38.3169 11.3908 38.6154 11.5908 39.0124C11.7939 39.4064 11.8955 39.8988 11.8955 40.4897V45H10.5152V40.6559C10.5152 40.1358 10.3813 39.7326 10.1135 39.4464C9.84579 39.1571 9.4734 39.0124 8.99636 39.0124C8.67013 39.0124 8.37775 39.0817 8.11923 39.2202C7.86378 39.3587 7.6622 39.5618 7.51447 39.8295C7.36982 40.0942 7.2975 40.4143 7.2975 40.7898ZM16.7936 45.1431C16.095 45.1431 15.4933 44.9938 14.9885 44.6953C14.4869 44.3937 14.0991 43.9705 13.8252 43.4258C13.5544 42.878 13.4189 42.2363 13.4189 41.5007C13.4189 40.7744 13.5544 40.1342 13.8252 39.5803C14.0991 39.0263 14.4807 38.5939 14.9701 38.283C15.4625 37.9722 16.038 37.8168 16.6966 37.8168C17.0967 37.8168 17.4845 37.8829 17.86 38.0153C18.2355 38.1476 18.5725 38.3554 18.871 38.6385C19.1695 38.9216 19.405 39.2894 19.5773 39.7418C19.7497 40.1912 19.8358 40.7375 19.8358 41.3807V41.87H14.1991V40.8359H18.4832C18.4832 40.4728 18.4094 40.1512 18.2616 39.8711C18.1139 39.5879 17.9062 39.3648 17.6384 39.2017C17.3737 39.0386 17.0629 38.957 16.7059 38.957C16.3181 38.957 15.9796 39.0524 15.6903 39.2433C15.404 39.431 15.1824 39.6772 15.0255 39.9819C14.8716 40.2835 14.7947 40.6113 14.7947 40.9652V41.7731C14.7947 42.247 14.8778 42.6502 15.0439 42.9826C15.2132 43.315 15.4487 43.5689 15.7503 43.7443C16.0519 43.9167 16.4043 44.0028 16.8074 44.0028C17.069 44.0028 17.3076 43.9659 17.523 43.892C17.7384 43.8151 17.9246 43.7012 18.0816 43.5504C18.2385 43.3996 18.3586 43.2134 18.4417 42.9918L19.7481 43.2273C19.6435 43.612 19.4558 43.949 19.1849 44.2383C18.9172 44.5245 18.5802 44.7476 18.1739 44.9077C17.7707 45.0646 17.3106 45.1431 16.7936 45.1431ZM24.8078 45V37.9091H26.1327V39.0632H26.2204C26.3682 38.6723 26.6098 38.3677 26.9452 38.1491C27.2807 37.9276 27.6823 37.8168 28.1501 37.8168C28.6241 37.8168 29.0211 37.9276 29.3412 38.1491C29.6643 38.3707 29.9028 38.6754 30.0567 39.0632H30.1306C30.2999 38.6847 30.5692 38.383 30.9385 38.1584C31.3078 37.9306 31.7479 37.8168 32.2588 37.8168C32.902 37.8168 33.4268 38.0183 33.833 38.4215C34.2423 38.8247 34.447 39.4325 34.447 40.245V45H33.0667V40.3743C33.0667 39.8942 32.9359 39.5464 32.6743 39.331C32.4127 39.1155 32.1003 39.0078 31.7371 39.0078C31.2878 39.0078 30.9385 39.1463 30.6892 39.4233C30.4399 39.6972 30.3153 40.0496 30.3153 40.4805V45H28.9395V40.2866C28.9395 39.9019 28.8195 39.5926 28.5795 39.3587C28.3394 39.1248 28.027 39.0078 27.6423 39.0078C27.3807 39.0078 27.1391 39.0771 26.9175 39.2156C26.699 39.351 26.522 39.5402 26.3866 39.7834C26.2543 40.0265 26.1881 40.3081 26.1881 40.6282V45H24.8078ZM38.3606 45.157C37.9113 45.157 37.505 45.0739 37.1419 44.9077C36.7787 44.7384 36.4909 44.4937 36.2786 44.1737C36.0693 43.8536 35.9647 43.4612 35.9647 42.9964C35.9647 42.5964 36.0416 42.267 36.1955 42.0085C36.3494 41.75 36.5571 41.5453 36.8187 41.3945C37.0803 41.2437 37.3727 41.1299 37.6958 41.0529C38.019 40.976 38.3483 40.9175 38.6838 40.8775C39.1085 40.8282 39.4532 40.7882 39.7179 40.7575C39.9825 40.7236 40.1749 40.6697 40.2949 40.5959C40.415 40.522 40.475 40.402 40.475 40.2358V40.2035C40.475 39.8003 40.3611 39.4879 40.1333 39.2663C39.9087 39.0447 39.5732 38.9339 39.127 38.9339C38.6622 38.9339 38.296 39.037 38.0282 39.2433C37.7636 39.4464 37.5804 39.6726 37.4789 39.9219L36.1816 39.6264C36.3355 39.1955 36.5602 38.8478 36.8556 38.5831C37.1542 38.3153 37.4973 38.1214 37.8851 38.0014C38.2729 37.8783 38.6807 37.8168 39.1085 37.8168C39.3916 37.8168 39.6917 37.8506 40.0087 37.9183C40.3288 37.983 40.6273 38.103 40.9043 38.2784C41.1844 38.4538 41.4136 38.7047 41.5922 39.0309C41.7707 39.354 41.8599 39.7741 41.8599 40.2912V45H40.5119V44.0305H40.4565C40.3672 44.209 40.2334 44.3845 40.0549 44.5568C39.8764 44.7292 39.6471 44.8723 39.367 44.9862C39.0869 45.1 38.7515 45.157 38.3606 45.157ZM38.6607 44.049C39.0423 44.049 39.3685 43.9736 39.6394 43.8228C39.9133 43.672 40.121 43.475 40.2626 43.2319C40.4073 42.9857 40.4796 42.7225 40.4796 42.4425V41.5284C40.4303 41.5777 40.3349 41.6238 40.1934 41.6669C40.0549 41.7069 39.8964 41.7423 39.7179 41.7731C39.5394 41.8008 39.3655 41.8269 39.1962 41.8516C39.0269 41.8731 38.8854 41.8916 38.7715 41.907C38.5037 41.9408 38.2591 41.9978 38.0375 42.0778C37.819 42.1578 37.6435 42.2732 37.5112 42.424C37.3819 42.5717 37.3173 42.7687 37.3173 43.0149C37.3173 43.3565 37.4435 43.6151 37.6958 43.7905C37.9482 43.9628 38.2698 44.049 38.6607 44.049ZM44.968 42.5948L44.9587 40.9098H45.1988L48.0241 37.9091H49.6768L46.4545 41.3253H46.2375L44.968 42.5948ZM43.6984 45V35.5455H45.0787V45H43.6984ZM48.1764 45L45.6373 41.63L46.5883 40.6651L49.8707 45H48.1764ZM53.6989 45.1431C53.0002 45.1431 52.3986 44.9938 51.8938 44.6953C51.3922 44.3937 51.0044 43.9705 50.7305 43.4258C50.4596 42.878 50.3242 42.2363 50.3242 41.5007C50.3242 40.7744 50.4596 40.1342 50.7305 39.5803C51.0044 39.0263 51.386 38.5939 51.8754 38.283C52.3678 37.9722 52.9433 37.8168 53.6019 37.8168C54.002 37.8168 54.3898 37.8829 54.7653 38.0153C55.1407 38.1476 55.4777 38.3554 55.7763 38.6385C56.0748 38.9216 56.3103 39.2894 56.4826 39.7418C56.6549 40.1912 56.7411 40.7375 56.7411 41.3807V41.87H51.1044V40.8359H55.3885C55.3885 40.4728 55.3146 40.1512 55.1669 39.8711C55.0192 39.5879 54.8114 39.3648 54.5437 39.2017C54.279 39.0386 53.9682 38.957 53.6112 38.957C53.2234 38.957 52.8848 39.0524 52.5955 39.2433C52.3093 39.431 52.0877 39.6772 51.9308 39.9819C51.7769 40.2835 51.6999 40.6113 51.6999 40.9652V41.7731C51.6999 42.247 51.783 42.6502 51.9492 42.9826C52.1185 43.315 52.3539 43.5689 52.6555 43.7443C52.9571 43.9167 53.3095 44.0028 53.7127 44.0028C53.9743 44.0028 54.2128 43.9659 54.4283 43.892C54.6437 43.8151 54.8299 43.7012 54.9869 43.5504C55.1438 43.3996 55.2638 43.2134 55.3469 42.9918L56.6534 43.2273C56.5488 43.612 56.361 43.949 56.0902 44.2383C55.8224 44.5245 55.4854 44.7476 55.0792 44.9077C54.676 45.0646 54.2159 45.1431 53.6989 45.1431ZM63.5862 39.6403L62.3351 39.8619C62.2828 39.7018 62.1997 39.5495 62.0858 39.4048C61.9751 39.2602 61.8242 39.1417 61.6334 39.0494C61.4426 38.957 61.2041 38.9109 60.9179 38.9109C60.527 38.9109 60.2008 38.9986 59.9392 39.174C59.6776 39.3464 59.5468 39.5695 59.5468 39.8434C59.5468 40.0804 59.6345 40.2712 59.8099 40.4158C59.9854 40.5605 60.2685 40.679 60.6594 40.7713L61.7858 41.0298C62.4382 41.1806 62.9245 41.413 63.2446 41.7269C63.5647 42.0408 63.7247 42.4486 63.7247 42.9503C63.7247 43.375 63.6016 43.7536 63.3554 44.0859C63.1122 44.4152 62.7722 44.6738 62.3351 44.8615C61.9012 45.0492 61.398 45.1431 60.8256 45.1431C60.0315 45.1431 59.3837 44.9738 58.882 44.6353C58.3804 44.2937 58.0726 43.8089 57.9587 43.1811L59.2929 42.978C59.376 43.3258 59.5468 43.5889 59.8053 43.7674C60.0638 43.9428 60.4008 44.0305 60.8163 44.0305C61.2687 44.0305 61.6304 43.9367 61.9012 43.7489C62.172 43.5581 62.3074 43.3258 62.3074 43.0518C62.3074 42.8303 62.2243 42.6441 62.0581 42.4933C61.895 42.3424 61.6442 42.2286 61.3057 42.1516L60.1054 41.8885C59.4437 41.7377 58.9543 41.4976 58.6373 41.1683C58.3234 40.839 58.1665 40.422 58.1665 39.9173C58.1665 39.4987 58.2834 39.1325 58.5173 38.8185C58.7512 38.5046 59.0744 38.2599 59.4868 38.0845C59.8992 37.906 60.3716 37.8168 60.904 37.8168C61.6704 37.8168 62.2736 37.983 62.7137 38.3153C63.1538 38.6446 63.4446 39.0863 63.5862 39.6403ZM4.23793 53.9091V55.017H0.364702V53.9091H4.23793ZM1.40341 52.2102H2.78374V58.918C2.78374 59.1857 2.82375 59.3873 2.90376 59.5227C2.98378 59.6551 3.08688 59.7459 3.21307 59.7951C3.34233 59.8413 3.48236 59.8643 3.63317 59.8643C3.74396 59.8643 3.84091 59.8567 3.92401 59.8413C4.0071 59.8259 4.07173 59.8136 4.1179 59.8043L4.36719 60.9446C4.28717 60.9754 4.1733 61.0062 4.02557 61.0369C3.87784 61.0708 3.69318 61.0893 3.47159 61.0923C3.10843 61.0985 2.76989 61.0339 2.45597 60.8984C2.14205 60.763 1.88814 60.5537 1.69425 60.2706C1.50036 59.9875 1.40341 59.632 1.40341 59.2042V52.2102ZM7.2975 56.7898V61H5.91717V51.5455H7.27903V55.0632H7.36674C7.53294 54.6816 7.78684 54.3784 8.12846 54.1538C8.47008 53.9291 8.91634 53.8168 9.46724 53.8168C9.95351 53.8168 10.3782 53.9168 10.7414 54.1168C11.1076 54.3169 11.3908 54.6154 11.5908 55.0124C11.7939 55.4064 11.8955 55.8988 11.8955 56.4897V61H10.5152V56.6559C10.5152 56.1358 10.3813 55.7326 10.1135 55.4464C9.84579 55.1571 9.4734 55.0124 8.99636 55.0124C8.67013 55.0124 8.37775 55.0817 8.11923 55.2202C7.86378 55.3587 7.6622 55.5618 7.51447 55.8295C7.36982 56.0942 7.2975 56.4143 7.2975 56.7898ZM16.7936 61.1431C16.095 61.1431 15.4933 60.9938 14.9885 60.6953C14.4869 60.3937 14.0991 59.9705 13.8252 59.4258C13.5544 58.878 13.4189 58.2363 13.4189 57.5007C13.4189 56.7744 13.5544 56.1342 13.8252 55.5803C14.0991 55.0263 14.4807 54.5939 14.9701 54.283C15.4625 53.9722 16.038 53.8168 16.6966 53.8168C17.0967 53.8168 17.4845 53.8829 17.86 54.0153C18.2355 54.1476 18.5725 54.3554 18.871 54.6385C19.1695 54.9216 19.405 55.2894 19.5773 55.7418C19.7497 56.1912 19.8358 56.7375 19.8358 57.3807V57.87H14.1991V56.8359H18.4832C18.4832 56.4728 18.4094 56.1512 18.2616 55.8711C18.1139 55.5879 17.9062 55.3648 17.6384 55.2017C17.3737 55.0386 17.0629 54.957 16.7059 54.957C16.3181 54.957 15.9796 55.0524 15.6903 55.2433C15.404 55.431 15.1824 55.6772 15.0255 55.9819C14.8716 56.2835 14.7947 56.6113 14.7947 56.9652V57.7731C14.7947 58.247 14.8778 58.6502 15.0439 58.9826C15.2132 59.315 15.4487 59.5689 15.7503 59.7443C16.0519 59.9167 16.4043 60.0028 16.8074 60.0028C17.069 60.0028 17.3076 59.9659 17.523 59.892C17.7384 59.8151 17.9246 59.7012 18.0816 59.5504C18.2385 59.3996 18.3586 59.2134 18.4417 58.9918L19.7481 59.2273C19.6435 59.612 19.4558 59.949 19.1849 60.2383C18.9172 60.5245 18.5802 60.7476 18.1739 60.9077C17.7707 61.0646 17.3106 61.1431 16.7936 61.1431ZM24.8078 61V53.9091H26.1327V55.0632H26.2204C26.3682 54.6723 26.6098 54.3677 26.9452 54.1491C27.2807 53.9276 27.6823 53.8168 28.1501 53.8168C28.6241 53.8168 29.0211 53.9276 29.3412 54.1491C29.6643 54.3707 29.9028 54.6754 30.0567 55.0632H30.1306C30.2999 54.6847 30.5692 54.383 30.9385 54.1584C31.3078 53.9306 31.7479 53.8168 32.2588 53.8168C32.902 53.8168 33.4268 54.0183 33.833 54.4215C34.2423 54.8247 34.447 55.4325 34.447 56.245V61H33.0667V56.3743C33.0667 55.8942 32.9359 55.5464 32.6743 55.331C32.4127 55.1155 32.1003 55.0078 31.7371 55.0078C31.2878 55.0078 30.9385 55.1463 30.6892 55.4233C30.4399 55.6972 30.3153 56.0496 30.3153 56.4805V61H28.9395V56.2866C28.9395 55.9019 28.8195 55.5926 28.5795 55.3587C28.3394 55.1248 28.027 55.0078 27.6423 55.0078C27.3807 55.0078 27.1391 55.0771 26.9175 55.2156C26.699 55.351 26.522 55.5402 26.3866 55.7834C26.2543 56.0265 26.1881 56.3081 26.1881 56.6282V61H24.8078ZM38.3606 61.157C37.9113 61.157 37.505 61.0739 37.1419 60.9077C36.7787 60.7384 36.4909 60.4937 36.2786 60.1737C36.0693 59.8536 35.9647 59.4612 35.9647 58.9964C35.9647 58.5964 36.0416 58.267 36.1955 58.0085C36.3494 57.75 36.5571 57.5453 36.8187 57.3945C37.0803 57.2437 37.3727 57.1299 37.6958 57.0529C38.019 56.976 38.3483 56.9175 38.6838 56.8775C39.1085 56.8282 39.4532 56.7882 39.7179 56.7575C39.9825 56.7236 40.1749 56.6697 40.2949 56.5959C40.415 56.522 40.475 56.402 40.475 56.2358V56.2035C40.475 55.8003 40.3611 55.4879 40.1333 55.2663C39.9087 55.0447 39.5732 54.9339 39.127 54.9339C38.6622 54.9339 38.296 55.037 38.0282 55.2433C37.7636 55.4464 37.5804 55.6726 37.4789 55.9219L36.1816 55.6264C36.3355 55.1955 36.5602 54.8478 36.8556 54.5831C37.1542 54.3153 37.4973 54.1214 37.8851 54.0014C38.2729 53.8783 38.6807 53.8168 39.1085 53.8168C39.3916 53.8168 39.6917 53.8506 40.0087 53.9183C40.3288 53.983 40.6273 54.103 40.9043 54.2784C41.1844 54.4538 41.4136 54.7047 41.5922 55.0309C41.7707 55.354 41.8599 55.7741 41.8599 56.2912V61H40.5119V60.0305H40.4565C40.3672 60.209 40.2334 60.3845 40.0549 60.5568C39.8764 60.7292 39.6471 60.8723 39.367 60.9862C39.0869 61.1 38.7515 61.157 38.3606 61.157ZM38.6607 60.049C39.0423 60.049 39.3685 59.9736 39.6394 59.8228C39.9133 59.672 40.121 59.475 40.2626 59.2319C40.4073 58.9857 40.4796 58.7225 40.4796 58.4425V57.5284C40.4303 57.5777 40.3349 57.6238 40.1934 57.6669C40.0549 57.7069 39.8964 57.7423 39.7179 57.7731C39.5394 57.8008 39.3655 57.8269 39.1962 57.8516C39.0269 57.8731 38.8854 57.8916 38.7715 57.907C38.5037 57.9408 38.2591 57.9978 38.0375 58.0778C37.819 58.1578 37.6435 58.2732 37.5112 58.424C37.3819 58.5717 37.3173 58.7687 37.3173 59.0149C37.3173 59.3565 37.4435 59.6151 37.6958 59.7905C37.9482 59.9628 38.2698 60.049 38.6607 60.049ZM46.6714 63.8068C46.1082 63.8068 45.6235 63.733 45.2172 63.5852C44.8141 63.4375 44.4848 63.2421 44.2293 62.9989C43.9739 62.7558 43.7831 62.4896 43.6569 62.2003L44.8433 61.7109C44.9264 61.8464 45.0372 61.9895 45.1757 62.1403C45.3173 62.2942 45.5081 62.425 45.7481 62.5327C45.9913 62.6404 46.3037 62.6942 46.6853 62.6942C47.2085 62.6942 47.6409 62.5665 47.9825 62.3111C48.3241 62.0587 48.4949 61.6555 48.4949 61.1016V59.7074H48.4072C48.3241 59.8582 48.2041 60.0259 48.0471 60.2106C47.8933 60.3952 47.6809 60.5553 47.4101 60.6907C47.1392 60.8261 46.7868 60.8938 46.3529 60.8938C45.7928 60.8938 45.288 60.763 44.8387 60.5014C44.3924 60.2367 44.0385 59.8474 43.7769 59.3335C43.5184 58.8164 43.3891 58.1809 43.3891 57.4268C43.3891 56.6728 43.5168 56.0265 43.7723 55.4879C44.0308 54.9493 44.3847 54.5369 44.8341 54.2507C45.2834 53.9614 45.7928 53.8168 46.3621 53.8168C46.8022 53.8168 47.1577 53.8906 47.4285 54.0384C47.6994 54.183 47.9102 54.3523 48.061 54.5462C48.2149 54.7401 48.3334 54.9109 48.4165 55.0586H48.518V53.9091H49.8707V61.157C49.8707 61.7663 49.7291 62.2665 49.4459 62.6573C49.1628 63.0482 48.7796 63.3375 48.2964 63.5252C47.8163 63.7129 47.2747 63.8068 46.6714 63.8068ZM46.6576 59.7489C47.0546 59.7489 47.3901 59.6566 47.664 59.4719C47.941 59.2842 48.1502 59.0165 48.2918 58.6687C48.4365 58.3178 48.5088 57.8977 48.5088 57.4084C48.5088 56.9313 48.438 56.5112 48.2964 56.1481C48.1549 55.7849 47.9471 55.5018 47.6732 55.2987C47.3993 55.0924 47.0608 54.9893 46.6576 54.9893C46.2421 54.9893 45.8959 55.0971 45.6189 55.3125C45.3419 55.5249 45.1326 55.8142 44.991 56.1804C44.8525 56.5466 44.7833 56.956 44.7833 57.4084C44.7833 57.8731 44.8541 58.2809 44.9956 58.6317C45.1372 58.9826 45.3465 59.2565 45.6235 59.4535C45.9036 59.6504 46.2483 59.7489 46.6576 59.7489ZM51.7219 61V53.9091H53.1022V61H51.7219ZM52.4189 52.815C52.1789 52.815 51.9727 52.735 51.8003 52.5749C51.6311 52.4118 51.5464 52.2179 51.5464 51.9933C51.5464 51.7655 51.6311 51.5716 51.8003 51.4116C51.9727 51.2485 52.1789 51.1669 52.4189 51.1669C52.659 51.1669 52.8637 51.2485 53.0329 51.4116C53.2053 51.5716 53.2915 51.7655 53.2915 51.9933C53.2915 52.2179 53.2053 52.4118 53.0329 52.5749C52.8637 52.735 52.659 52.815 52.4189 52.815ZM57.946 61.1431C57.2597 61.1431 56.6688 60.9877 56.1733 60.6768C55.6809 60.3629 55.3023 59.9305 55.0376 59.3796C54.773 58.8287 54.6406 58.1978 54.6406 57.4869C54.6406 56.7667 54.776 56.1312 55.0469 55.5803C55.3177 55.0263 55.6993 54.5939 56.1918 54.283C56.6842 53.9722 57.2643 53.8168 57.9322 53.8168C58.4708 53.8168 58.9509 53.9168 59.3725 54.1168C59.7942 54.3138 60.1342 54.5908 60.3928 54.9478C60.6544 55.3048 60.8098 55.7218 60.859 56.1989H59.5156C59.4418 55.8665 59.2725 55.5803 59.0078 55.3402C58.7462 55.1001 58.3954 54.9801 57.9553 54.9801C57.5705 54.9801 57.2335 55.0817 56.9442 55.2848C56.658 55.4848 56.4349 55.7711 56.2749 56.1435C56.1148 56.5128 56.0348 56.9498 56.0348 57.4545C56.0348 57.9716 56.1133 58.4179 56.2702 58.7933C56.4272 59.1688 56.6488 59.4596 56.935 59.6658C57.2243 59.872 57.5644 59.9751 57.9553 59.9751C58.2169 59.9751 58.4538 59.9274 58.6662 59.832C58.8816 59.7335 59.0617 59.5935 59.2063 59.4119C59.354 59.2304 59.4571 59.0118 59.5156 58.7564H60.859C60.8098 59.215 60.6605 59.6243 60.4112 59.9844C60.1619 60.3445 59.828 60.6276 59.4094 60.8338C58.994 61.04 58.5062 61.1431 57.946 61.1431ZM2.30824 72.7898V77H0.927912V67.5455H2.28977V71.0632H2.37749C2.54368 70.6816 2.79759 70.3784 3.1392 70.1538C3.48082 69.9291 3.92708 69.8168 4.47798 69.8168C4.96425 69.8168 5.38897 69.9168 5.75213 70.1168C6.11837 70.3169 6.40152 70.6154 6.60156 71.0124C6.80469 71.4064 6.90625 71.8988 6.90625 72.4897V77H5.52592V72.6559C5.52592 72.1358 5.39205 71.7326 5.12429 71.4464C4.85653 71.1571 4.48414 71.0124 4.0071 71.0124C3.68087 71.0124 3.38849 71.0817 3.12997 71.2202C2.87453 71.3587 2.67294 71.5618 2.52521 71.8295C2.38056 72.0942 2.30824 72.4143 2.30824 72.7898ZM10.8118 77.157C10.3625 77.157 9.9562 77.0739 9.59304 76.9077C9.22988 76.7384 8.94212 76.4937 8.72976 76.1737C8.52048 75.8536 8.41584 75.4612 8.41584 74.9964C8.41584 74.5964 8.49278 74.267 8.64666 74.0085C8.80054 73.75 9.00829 73.5453 9.26989 73.3945C9.53149 73.2437 9.82386 73.1299 10.147 73.0529C10.4702 72.976 10.7995 72.9175 11.1349 72.8775C11.5597 72.8282 11.9044 72.7882 12.169 72.7575C12.4337 72.7236 12.6261 72.6697 12.7461 72.5959C12.8661 72.522 12.9261 72.402 12.9261 72.2358V72.2035C12.9261 71.8003 12.8123 71.4879 12.5845 71.2663C12.3598 71.0447 12.0244 70.9339 11.5781 70.9339C11.1134 70.9339 10.7472 71.037 10.4794 71.2433C10.2147 71.4464 10.0316 71.6726 9.93004 71.9219L8.63281 71.6264C8.7867 71.1955 9.01136 70.8478 9.30682 70.5831C9.60535 70.3153 9.94851 70.1214 10.3363 70.0014C10.7241 69.8783 11.1319 69.8168 11.5597 69.8168C11.8428 69.8168 12.1429 69.8506 12.4599 69.9183C12.7799 69.983 13.0785 70.103 13.3555 70.2784C13.6355 70.4538 13.8648 70.7047 14.0433 71.0309C14.2218 71.354 14.3111 71.7741 14.3111 72.2912V77H12.9631V76.0305H12.9077C12.8184 76.209 12.6845 76.3845 12.506 76.5568C12.3275 76.7292 12.0982 76.8723 11.8182 76.9862C11.5381 77.1 11.2027 77.157 10.8118 77.157ZM11.1119 76.049C11.4935 76.049 11.8197 75.9736 12.0906 75.8228C12.3645 75.672 12.5722 75.475 12.7138 75.2319C12.8584 74.9857 12.9308 74.7225 12.9308 74.4425V73.5284C12.8815 73.5777 12.7861 73.6238 12.6445 73.6669C12.506 73.7069 12.3475 73.7423 12.169 73.7731C11.9905 73.8008 11.8166 73.8269 11.6474 73.8516C11.4781 73.8731 11.3365 73.8916 11.2227 73.907C10.9549 73.9408 10.7102 73.9978 10.4886 74.0778C10.2701 74.1578 10.0947 74.2732 9.96236 74.424C9.8331 74.5717 9.76847 74.7687 9.76847 75.0149C9.76847 75.3565 9.89465 75.6151 10.147 75.7905C10.3994 75.9628 10.721 76.049 11.1119 76.049ZM16.1496 79.6591V69.9091H17.4976V71.0586H17.613C17.693 70.9109 17.8084 70.7401 17.9593 70.5462C18.1101 70.3523 18.3193 70.183 18.5871 70.0384C18.8548 69.8906 19.2088 69.8168 19.6489 69.8168C20.2213 69.8168 20.7322 69.9614 21.1816 70.2507C21.6309 70.54 21.9833 70.957 22.2387 71.5018C22.4972 72.0465 22.6265 72.7021 22.6265 73.4684C22.6265 74.2347 22.4988 74.8918 22.2433 75.4396C21.9879 75.9844 21.637 76.4045 21.1908 76.6999C20.7445 76.9923 20.2352 77.1385 19.6627 77.1385C19.2319 77.1385 18.8795 77.0662 18.6056 76.9215C18.3347 76.7769 18.1224 76.6076 17.9685 76.4137C17.8146 76.2198 17.6961 76.0475 17.613 75.8967H17.5299V79.6591H16.1496ZM17.5022 73.4545C17.5022 73.9531 17.5745 74.3902 17.7192 74.7656C17.8638 75.1411 18.0731 75.435 18.347 75.6474C18.6209 75.8567 18.9564 75.9613 19.3534 75.9613C19.7658 75.9613 20.1105 75.852 20.3875 75.6335C20.6645 75.4119 20.8738 75.1119 21.0154 74.7333C21.16 74.3548 21.2323 73.9285 21.2323 73.4545C21.2323 72.9867 21.1615 72.5666 21.02 72.1942C20.8815 71.8219 20.6722 71.5279 20.3921 71.3125C20.1151 71.0971 19.7689 70.9893 19.3534 70.9893C18.9533 70.9893 18.6148 71.0924 18.3378 71.2987C18.0639 71.5049 17.8561 71.7926 17.7146 72.1619C17.573 72.5312 17.5022 72.9621 17.5022 73.4545ZM24.173 79.6591V69.9091H25.521V71.0586H25.6365C25.7165 70.9109 25.8319 70.7401 25.9827 70.5462C26.1335 70.3523 26.3428 70.183 26.6105 70.0384C26.8783 69.8906 27.2322 69.8168 27.6723 69.8168C28.2448 69.8168 28.7557 69.9614 29.205 70.2507C29.6543 70.54 30.0067 70.957 30.2622 71.5018C30.5207 72.0465 30.6499 72.7021 30.6499 73.4684C30.6499 74.2347 30.5222 74.8918 30.2668 75.4396C30.0113 75.9844 29.6605 76.4045 29.2142 76.6999C28.768 76.9923 28.2586 77.1385 27.6862 77.1385C27.2553 77.1385 26.9029 77.0662 26.629 76.9215C26.3582 76.7769 26.1458 76.6076 25.9919 76.4137C25.838 76.2198 25.7195 76.0475 25.6365 75.8967H25.5534V79.6591H24.173ZM25.5257 73.4545C25.5257 73.9531 25.598 74.3902 25.7426 74.7656C25.8873 75.1411 26.0966 75.435 26.3705 75.6474C26.6444 75.8567 26.9798 75.9613 27.3769 75.9613C27.7893 75.9613 28.134 75.852 28.411 75.6335C28.6879 75.4119 28.8972 75.1119 29.0388 74.7333C29.1834 74.3548 29.2558 73.9285 29.2558 73.4545C29.2558 72.9867 29.185 72.5666 29.0434 72.1942C28.9049 71.8219 28.6956 71.5279 28.4156 71.3125C28.1386 71.0971 27.7923 70.9893 27.3769 70.9893C26.9768 70.9893 26.6382 71.0924 26.3612 71.2987C26.0873 71.5049 25.8796 71.7926 25.738 72.1619C25.5964 72.5312 25.5257 72.9621 25.5257 73.4545ZM35.2526 77.1431C34.5539 77.1431 33.9523 76.9938 33.4475 76.6953C32.9459 76.3937 32.5581 75.9705 32.2842 75.4258C32.0133 74.878 31.8779 74.2363 31.8779 73.5007C31.8779 72.7744 32.0133 72.1342 32.2842 71.5803C32.5581 71.0263 32.9397 70.5939 33.4291 70.283C33.9215 69.9722 34.497 69.8168 35.1556 69.8168C35.5557 69.8168 35.9435 69.8829 36.319 70.0153C36.6945 70.1476 37.0315 70.3554 37.33 70.6385C37.6285 70.9216 37.864 71.2894 38.0363 71.7418C38.2087 72.1912 38.2948 72.7375 38.2948 73.3807V73.87H32.6581V72.8359H36.9422C36.9422 72.4728 36.8683 72.1512 36.7206 71.8711C36.5729 71.5879 36.3651 71.3648 36.0974 71.2017C35.8327 71.0386 35.5219 70.957 35.1649 70.957C34.7771 70.957 34.4385 71.0524 34.1492 71.2433C33.863 71.431 33.6414 71.6772 33.4845 71.9819C33.3306 72.2835 33.2536 72.6113 33.2536 72.9652V73.7731C33.2536 74.247 33.3367 74.6502 33.5029 74.9826C33.6722 75.315 33.9076 75.5689 34.2093 75.7443C34.5109 75.9167 34.8633 76.0028 35.2664 76.0028C35.528 76.0028 35.7665 75.9659 35.982 75.892C36.1974 75.8151 36.3836 75.7012 36.5406 75.5504C36.6975 75.3996 36.8176 75.2134 36.9007 74.9918L38.2071 75.2273C38.1025 75.612 37.9147 75.949 37.6439 76.2383C37.3762 76.5245 37.0392 76.7476 36.6329 76.9077C36.2297 77.0646 35.7696 77.1431 35.2526 77.1431ZM41.2067 72.7898V77H39.8263V69.9091H41.1513V71.0632H41.239C41.4021 70.6877 41.6576 70.3861 42.0053 70.1584C42.3562 69.9306 42.7978 69.8168 43.3303 69.8168C43.8134 69.8168 44.2366 69.9183 44.5998 70.1214C44.9629 70.3215 45.2446 70.62 45.4446 71.017C45.6446 71.4141 45.7447 71.9049 45.7447 72.4897V77H44.3643V72.6559C44.3643 72.1419 44.2305 71.7403 43.9627 71.451C43.695 71.1586 43.3272 71.0124 42.8594 71.0124C42.5393 71.0124 42.2546 71.0817 42.0053 71.2202C41.7591 71.3587 41.5637 71.5618 41.419 71.8295C41.2775 72.0942 41.2067 72.4143 41.2067 72.7898ZM48.5053 77.0877C48.253 77.0877 48.036 76.9985 47.8544 76.82C47.6728 76.6384 47.582 76.4199 47.582 76.1644C47.582 75.9121 47.6728 75.6966 47.8544 75.5181C48.036 75.3365 48.253 75.2457 48.5053 75.2457C48.7577 75.2457 48.9747 75.3365 49.1562 75.5181C49.3378 75.6966 49.4286 75.9121 49.4286 76.1644C49.4286 76.3337 49.3855 76.4891 49.2994 76.6307C49.2163 76.7692 49.1055 76.88 48.967 76.9631C48.8285 77.0462 48.6746 77.0877 48.5053 77.0877Z" fill="white"/>
<path d="M46 152C47.6569 152 49 150.657 49 149V122C49 120.343 47.6569 119 46 119C44.3431 119 43 120.343 43 122V146H19C17.3431 146 16 147.343 16 149C16 150.657 17.3431 152 19 152H46ZM16.8787 124.121L43.8787 151.121L48.1213 146.879L21.1213 119.879L16.8787 124.121Z" fill="white"/>
</svg>
