<svg width="154" height="240" viewBox="0 0 154 240" fill="none" xmlns="http://www.w3.org/2000/svg">
<path d="M29.0531 85.1476L29.053 85.1477L29.0611 85.1583L29.1772 85.3099C29.7969 86.1193 30.4725 86.8282 31.179 87.4333L31.8316 87.9922L32.4457 88.5932C33.6329 89.7552 34.6356 90.6538 35.9884 91.8613L35.9885 91.8613L36.0271 91.8958C38.5428 94.1411 41.6154 96.8835 45.7117 101.492C55.2822 112.258 57.8218 124.535 57.5604 134.891C57.3401 143.622 55.0463 152.023 53.6761 157.036C53.5993 157.317 53.5253 157.588 53.4549 157.847C52.717 160.562 52.218 162.423 51.859 164.087L51.6406 165.098L51.3422 166.089C50.2305 169.781 49.6099 173.787 49.6099 178.022C49.6099 200.187 65.5406 214.126 80.4396 214.126C95.3386 214.126 111.269 200.187 111.269 178.022C111.269 161.18 101.619 148.437 90.4976 143.897L88.8275 143.215L87.2682 142.308C82.5991 139.593 77.2537 135.953 72.3841 131.699C68.0134 127.88 61.7175 121.602 58.0539 113.228C54.5758 105.278 52.4962 98.3594 51.4558 91.8315C50.4456 85.4933 50.5818 80.3794 50.665 77.2644L50.6726 76.9775C50.7267 74.9238 50.7278 74.2349 50.6867 73.6269C50.6607 73.2427 50.613 72.8671 50.4421 72.256L50.2867 71.7001L50.1562 71.138C48.422 63.666 42.7681 60.1593 38.2418 60.1593C33.0278 60.1593 25.8736 65.2057 25.8736 75.1648C25.8736 79.0836 27.103 82.4553 28.9406 84.9922L29.0531 85.1476ZM14.6981 106.727L14.6862 106.716L14.6736 106.705C12.6038 104.932 10.7118 102.931 9.0313 100.736L9.02039 100.722L9.00849 100.708C8.92238 100.611 8.83566 100.513 8.74832 100.414L8.37562 100.743L8.74831 100.414C8.71988 100.382 8.69138 100.35 8.66281 100.317L8.69469 100.296L8.39122 99.8766L8.38465 99.8675C7.84508 99.1221 7.32933 98.356 6.83864 97.5704C2.83558 91.1613 0.5 83.4565 0.5 75.1648C0.5 52.8321 17.4284 34.7857 38.2418 34.7857C55.9175 34.7857 70.7868 47.796 74.8729 65.4015L74.8754 65.4124L74.8784 65.4231C76.2303 70.2581 76.1379 73.8284 76.0375 77.645L76.0372 77.6543C75.958 80.6649 75.8746 83.8314 76.5132 87.838C77.1524 91.8486 78.5114 96.6834 81.3002 103.058C82.7142 106.29 85.6515 109.597 89.078 112.59C92.5141 115.592 96.4858 118.316 100.025 120.374L100.055 120.392L100.087 120.405C121.419 129.113 136.643 151.609 136.643 178.022C136.643 212.018 111.439 239.5 80.4396 239.5C49.4403 239.5 24.2363 212.018 24.2363 178.022C24.2363 171.298 25.2231 164.827 27.0463 158.773L27.0521 158.754L27.0563 158.734C27.5821 156.297 28.2678 153.774 28.9695 151.192L28.9779 151.162C30.4488 145.75 31.9901 140.079 32.1845 134.591C32.3801 129.074 31.2165 123.707 27.2499 118.934C27.0871 118.738 26.9196 118.543 26.7473 118.349L26.3736 118.681L26.7473 118.349C23.6254 114.837 21.4214 112.87 19.0936 110.792L19.0926 110.791C17.7383 109.583 16.345 108.339 14.6981 106.727Z" stroke="#FFFF4B"/>
<path d="M121.429 79.5C130.462 79.5 137.786 72.1767 137.786 63.1429C137.786 54.1091 130.462 46.7857 121.429 46.7857C112.395 46.7857 105.071 54.1091 105.071 63.1429C105.071 72.1767 112.395 79.5 121.429 79.5ZM152.643 63.1429C152.643 80.382 138.668 94.3572 121.429 94.3572C104.189 94.3572 90.2143 80.382 90.2143 63.1429C90.2143 45.9037 104.189 31.9286 121.429 31.9286C138.668 31.9286 152.643 45.9037 152.643 63.1429Z" stroke="#FFFF4B"/>
<path d="M81.7143 29.5714C86.3692 29.5714 90.1428 25.7978 90.1428 21.1429C90.1428 16.4879 86.3692 12.7143 81.7143 12.7143C77.0593 12.7143 73.2857 16.4879 73.2857 21.1429C73.2857 25.7978 77.0593 29.5714 81.7143 29.5714ZM102.357 21.1429C102.357 32.5436 93.115 41.7857 81.7143 41.7857C70.3135 41.7857 61.0714 32.5436 61.0714 21.1429C61.0714 9.74212 70.3135 0.5 81.7143 0.5C93.115 0.5 102.357 9.74212 102.357 21.1429Z" stroke="#FFFF4B"/>
</svg>
